# xmcd
#
# Track frame offsets:
#	150
#	21841
#	45511
#	68019
#	81415
#	105563
#	123536
#	142978
#	159789
#	177187
#	192115
#	210011
#	227837
#	248079
#	265120
#	288840
#	306408
#	327608
#
# Disc length: 4586 seconds
#
# Revision: 1
# Processed by: cddbd v1.5.2PL0 Copyright (c) Steve Scherf et al.
# Submitted via: audiograbber 1.83.01
#
DISCID=f011e812
DTITLE=Will Smith - Greatest Hits
DYEAR=2002
DGENRE=Rap
TTITLE0=Girls Aint Nothing But Trouble
TTITLE1=Parents Just Dont Understand (Single Edit)
TTITLE2=A Nichtmare On My Street
TTITLE3=The Fresh Prince Of Bel Air
TTITLE4=Summertime
TTITLE5=Just Cruisin
TTITLE6=1000 Kisses Feat. Jada
TTITLE7=Men In Black
TTITLE8=Gettin Jiggy With It
TTITLE9=Miami
TTITLE10=Freakin It
TTITLE11=Will 2k
TTITLE12=Wild Wild West (Feat Dru Hill and Kool Mo Dee)
TTITLE13=Nod Ya Head (Remix)
TTITLE14=Just the two of us
TTITLE15=Nod Your Head (Men In Black 2)
TTITLE16=Miami Dance Remix
TTITLE17=Men In Black (Remix)
EXTD=
EXTT0=
EXTT1=
EXTT2=
EXTT3=
EXTT4=
EXTT5=
EXTT6=
EXTT7=
EXTT8=
EXTT9=
EXTT10=
EXTT11=
EXTT12=
EXTT13=
EXTT14=
EXTT15=
EXTT16=
EXTT17=
PLAYORDER=
